<?xml version="1.0" encoding="utf-8"?>
<!-- Generator: Adobe Illustrator 26.0.1, SVG Export Plug-In . SVG Version: 6.00 Build 0)  -->
<svg version="1.1" id="Layer_1" xmlns="http://www.w3.org/2000/svg" xmlns:xlink="http://www.w3.org/1999/xlink" x="0px" y="0px"
	 viewBox="0 0 300 370" style="enable-background:new 0 0 300 370;" xml:space="preserve">
<style type="text/css">
	.st0{fill:#E6F1FF;}
	.st1{opacity:0.1;fill:#438BE3;enable-background:new    ;}
	.st2{fill:#F5F5F5;}
	.st3{fill:#EEF5F9;}
	.st4{opacity:0.3;fill:#438BE3;enable-background:new    ;}
	.st5{opacity:0.2;fill:#438BE3;enable-background:new    ;}
	.st6{fill:#D5DCE0;}
	.st7{fill:#0540AC;}
	.st8{opacity:0.2;}
	.st9{fill:#438BE3;}
	.st10{fill:#0080FF;}
	.st11{fill:#C7DEEB;}
	.st12{fill:#E71875;}
	.st13{fill:#B50043;}
</style>
<g id="Group_6706" transform="translate(-750.331 -182.328)">
	<path id="Path_16514" class="st0" d="M951.8,495.5c0,0-125.4,35.6-152.7-53.8c-27.2-89.5-41.9-159.7,57.2-171.8
		s142.8-72.7,172.4-35.9C1058.3,270.8,1037.2,476.4,951.8,495.5z"/>
	<g id="Group_6477" transform="translate(-1620.534 -1323.506)">
		<g id="Group_6456" transform="translate(2614.491 1730.929)">
			<g id="Group_6448" transform="translate(0 0)">
				<path id="Path_19301" class="st1" d="M-82.7,21.9l41.3,23.9h28.9l10.3-16.5l-44.7-28L-82.7,21.9z"/>
				<g id="Group_6447" transform="translate(34.323)">
					<path id="Path_19302" class="st2" d="M-95.6-16.5l48.8,28.2L2-16.5l-48.8-28.2L-95.6-16.5z"/>
					<path id="Path_19303" class="st3" d="M-74.9-28.4l48.8,28.2l7.5-4.3l-48.8-28.2L-74.9-28.4z"/>
					<path id="Path_19304" class="st2" d="M-95.6,17.5l48.8,28.2v-34l-48.8-28.2V17.5z"/>
					<path id="Path_19305" class="st2" d="M-46.8,11.7v34L2,17.5v-34L-46.8,11.7z"/>
					<path id="Path_19306" class="st4" d="M-95.6,17.5l48.8,28.2v-34l-48.8-28.2V17.5z"/>
					<path id="Path_19307" class="st5" d="M-46.8,11.7v34L2,17.5v-34L-46.8,11.7z"/>
					<path id="Path_19308" class="st6" d="M-26.1-0.2v16.6l7.5-4.3V-4.6L-26.1-0.2z"/>
				</g>
			</g>
			<g id="Group_6455" transform="translate(81.429 109.246)">
				<g id="Group_6449" transform="translate(19.544 13.904)">
					<path id="Path_19309" class="st7" d="M-118.9-90.7v-0.2L-119-91v0.2c-0.5-0.4-1.2-0.3-1.6,0.2c0.1,0,0.2,0,0.2,0
						c0.2,0.1,0.3,0.3,0.4,0.5c0-0.2,0.2-0.2,0.4-0.1c0.2,0.1,0.3,0.3,0.4,0.5c0-0.2,0.2-0.2,0.4-0.1c0.2,0.1,0.3,0.3,0.4,0.5
						c0-0.2,0.2-0.2,0.4-0.1c0.2,0.1,0.3,0.3,0.4,0.5c0-0.2,0.2-0.2,0.4-0.1c0.1,0.1,0.2,0.1,0.2,0.2
						C-117.5-89.5-118.1-90.2-118.9-90.7z"/>
					<path id="Path_19310" class="st7" d="M-119-86l0.2,0.1v-3.6l-0.2-0.1L-119-86z"/>
					<path id="Path_19311" class="st7" d="M-119.4-85.6c-0.2-0.2-0.4-0.4-0.4-0.7l-0.2-0.1c0,0.4,0.2,0.8,0.6,1
						c0.3,0.2,0.6,0,0.6-0.3l-0.2-0.1C-119-85.6-119.2-85.5-119.4-85.6z"/>
				</g>
				<g id="Group_6450" transform="translate(11.025 7.544)">
					<path id="Path_19312" class="st7" d="M-117.5-88.6v2c0,0.9,0.5,1.7,1.2,2.1c0.7,0.4,1.2,0.1,1.2-0.7v-2L-117.5-88.6z"/>
					<path id="Path_19313" class="st7" d="M-116.1-82.4v-1.8l-0.3-0.2v1.8l-0.3-0.2l-0.8-0.2v0.2l2.5,1.4v-0.2l-0.8-0.7L-116.1-82.4
						z"/>
				</g>
				<g id="Group_6451" transform="translate(0.977 2.691)">
					<path id="Path_19314" class="st7" d="M-113.7-82.1v0.5l3.7,2.1V-80L-113.7-82.1z"/>
					<path id="Path_19315" class="st7" d="M-111.2-80.9l0.5,0.3v-3.6l0.3,0.2l-0.5-1.8l-0.5,1.2l0.3,0.2V-80.9z"/>
					<path id="Path_19316" class="st7" d="M-112.9-81.8l0.5,0.3v-3.6l0.3,0.2l-0.5-1.8l-0.5,1.2l0.3,0.2L-112.9-81.8z"/>
				</g>
				<g id="Group_6452" transform="translate(18.402 10.624)">
					<path id="Path_19317" class="st7" d="M-115.4-80l-4.9-2.8v-7l4.9,2.8V-80z M-120.1-82.9l4.6,2.7v-6.6l-4.6-2.7V-82.9z"/>
				</g>
				<g id="Group_6453" transform="translate(9.09 5.247)">
					<path id="Path_19318" class="st7" d="M-111.9-77.9l-4.9-2.8v-7l4.9,2.8V-77.9z M-116.6-80.9l4.6,2.7v-6.6l-4.6-2.7V-80.9z"/>
				</g>
				<g id="Group_6454">
					<path id="Path_19319" class="st7" d="M-108.4-76l-4.9-2.8v-7l4.9,2.8V-76z M-113.2-78.9l4.6,2.7v-6.6l-4.6-2.7V-78.9z"/>
				</g>
			</g>
		</g>
		<g id="Group_6466" transform="translate(2481.157 1748.836)">
			<g id="Group_6458">
				<path id="Path_19320" class="st1" d="M-32.5,15.1L8.8,39h28.9L48,22.5L3.2-5.5L-32.5,15.1z"/>
				<g id="Group_6457" transform="translate(34.323)">
					<path id="Path_19321" class="st2" d="M-45.4-23.2L3.4,4.9l48.8-28.2L3.4-51.4L-45.4-23.2z"/>
					<path id="Path_19322" class="st3" d="M-24.8-35.2L24-7l7.5-4.3l-48.8-28.2L-24.8-35.2z"/>
					<path id="Path_19323" class="st2" d="M-45.4,10.8L3.4,39v-34l-48.8-28.2L-45.4,10.8z"/>
					<path id="Path_19324" class="st2" d="M3.4,4.9v34l48.8-28.2v-34L3.4,4.9z"/>
					<path id="Path_19325" class="st4" d="M-45.4,10.8L3.4,39v-34l-48.8-28.2L-45.4,10.8z"/>
					<path id="Path_19326" class="st5" d="M3.4,4.9v34l48.8-28.2v-34L3.4,4.9z"/>
					<path id="Path_19327" class="st6" d="M24-7V9.6l7.5-4.3v-16.6L24-7z"/>
				</g>
			</g>
			<g id="Group_6465" transform="translate(81.429 109.246)">
				<g id="Group_6459" transform="translate(19.544 13.904)">
					<path id="Path_19328" class="st7" d="M-68.7-97.4v-0.2l-0.2-0.1v0.2c-0.5-0.4-1.2-0.3-1.6,0.2c0.1,0,0.2,0,0.2,0
						c0.2,0.1,0.3,0.3,0.4,0.5c0-0.2,0.2-0.2,0.4-0.1c0.2,0.1,0.3,0.3,0.4,0.5c0-0.2,0.2-0.2,0.4-0.1c0.2,0.1,0.3,0.3,0.4,0.5
						c0-0.2,0.2-0.2,0.4-0.1c0.2,0.1,0.3,0.3,0.4,0.5c0-0.2,0.2-0.2,0.4-0.1c0.1,0.1,0.2,0.1,0.2,0.2C-67.4-96.2-68-96.9-68.7-97.4z
						"/>
					<path id="Path_19329" class="st7" d="M-68.9-92.7l0.2,0.1v-3.6l-0.2-0.1L-68.9-92.7z"/>
					<path id="Path_19330" class="st7" d="M-69.3-92.3c-0.2-0.2-0.4-0.4-0.4-0.7l-0.2-0.1c0,0.4,0.2,0.8,0.6,1
						c0.3,0.2,0.6,0,0.6-0.3l-0.2-0.1C-68.9-92.3-69-92.2-69.3-92.3z"/>
				</g>
				<g id="Group_6460" transform="translate(11.025 7.544)">
					<path id="Path_19331" class="st7" d="M-67.3-95.4v2c0,0.9,0.5,1.7,1.2,2.1c0.7,0.4,1.2,0.1,1.2-0.7v-2L-67.3-95.4z"/>
					<path id="Path_19332" class="st7" d="M-65.9-89.1v-1.8l-0.3-0.2v1.8l-0.3-0.2l-0.8-0.2v0.2l2.5,1.4v-0.2l-0.8-0.7L-65.9-89.1z"
						/>
				</g>
				<g id="Group_6461" transform="translate(0.977 2.691)">
					<path id="Path_19333" class="st7" d="M-63.5-88.8v0.5l3.7,2.1v-0.5L-63.5-88.8z"/>
					<path id="Path_19334" class="st7" d="M-61.1-87.6l0.5,0.3V-91l0.3,0.2l-0.5-1.8l-0.5,1.2l0.3,0.2V-87.6z"/>
					<path id="Path_19335" class="st7" d="M-62.7-88.6l0.5,0.3v-3.6l0.3,0.2l-0.5-1.8l-0.5,1.2l0.3,0.2L-62.7-88.6z"/>
				</g>
				<g id="Group_6462" transform="translate(18.402 10.624)">
					<path id="Path_19336" class="st7" d="M-65.2-86.7l-4.9-2.8v-7l4.9,2.8V-86.7z M-69.9-89.6l4.6,2.7v-6.6l-4.6-2.7V-89.6z"/>
				</g>
				<g id="Group_6463" transform="translate(9.09 5.248)">
					<path id="Path_19337" class="st7" d="M-61.7-84.7l-4.9-2.8v-7l4.9,2.8V-84.7z M-66.4-87.6l4.6,2.7v-6.6l-4.6-2.7V-87.6z"/>
				</g>
				<g id="Group_6464">
					<path id="Path_19338" class="st7" d="M-58.3-82.7l-4.9-2.8v-7l4.9,2.8V-82.7z M-63-85.6l4.6,2.7v-6.6l-4.6-2.7V-85.6z"/>
				</g>
			</g>
		</g>
		<g id="Group_6476" transform="translate(2649.406 1674.006)">
			<g id="Group_6468">
				<g id="Group_6467">
					<path id="Path_19339" class="st2" d="M-95.8,4.9L-47,33.1L1.8,4.9L-47-23.3L-95.8,4.9z"/>
					<path id="Path_19340" class="st3" d="M-75.2-7l48.8,28.2l7.5-4.3l-48.8-28.2L-75.2-7z"/>
					<path id="Path_19341" class="st2" d="M-95.8,38.9L-47,67.1v-34L-95.8,4.9V38.9z"/>
					<path id="Path_19342" class="st2" d="M-47,33.1v34L1.8,38.9v-34L-47,33.1z"/>
					<path id="Path_19343" class="st4" d="M-95.8,38.9L-47,67.1v-34L-95.8,4.9V38.9z"/>
					<path id="Path_19344" class="st5" d="M-47,33.1v34L1.8,38.9v-34L-47,33.1z"/>
					<path id="Path_19345" class="st6" d="M-26.4,21.2v16.6l7.5-4.3V16.8L-26.4,21.2z"/>
				</g>
			</g>
			<g id="Group_6475" transform="translate(47.106 109.246)">
				<g id="Group_6469" transform="translate(19.543 13.904)">
					<path id="Path_19346" class="st7" d="M-119.1-69.3v-0.2l-0.2-0.1v0.2c-0.5-0.4-1.2-0.3-1.6,0.2c0.1,0,0.2,0,0.2,0
						c0.2,0.1,0.3,0.3,0.4,0.5c0-0.2,0.2-0.2,0.4-0.1c0.2,0.1,0.3,0.3,0.4,0.5c0-0.2,0.2-0.2,0.4-0.1c0.2,0.1,0.3,0.3,0.4,0.5
						c0-0.2,0.2-0.2,0.4-0.1c0.2,0.1,0.3,0.3,0.4,0.5c0-0.2,0.2-0.2,0.4-0.1c0.1,0.1,0.2,0.1,0.2,0.2
						C-117.8-68.1-118.3-68.8-119.1-69.3z"/>
					<path id="Path_19347" class="st7" d="M-119.2-64.6l0.2,0.1v-3.6l-0.2-0.1L-119.2-64.6z"/>
					<path id="Path_19348" class="st7" d="M-119.7-64.2c-0.2-0.2-0.4-0.4-0.4-0.7l-0.2-0.1c0,0.4,0.2,0.8,0.6,1
						c0.3,0.2,0.6,0,0.6-0.3l-0.2-0.1C-119.2-64.1-119.4-64-119.7-64.2z"/>
				</g>
				<g id="Group_6470" transform="translate(11.024 7.544)">
					<path id="Path_19349" class="st7" d="M-117.7-67.2v2c0,0.9,0.5,1.7,1.2,2.1c0.7,0.4,1.2,0.1,1.2-0.7v-2L-117.7-67.2z"/>
					<path id="Path_19350" class="st7" d="M-116.3-61v-1.8l-0.3-0.2v1.8l-0.3-0.2l-0.8-0.2v0.2l2.5,1.4v-0.2l-0.8-0.7L-116.3-61z"/>
				</g>
				<g id="Group_6471" transform="translate(0.977 2.691)">
					<path id="Path_19351" class="st7" d="M-113.9-60.7v0.5l3.7,2.1v-0.5L-113.9-60.7z"/>
					<path id="Path_19352" class="st7" d="M-111.5-59.5l0.5,0.3v-3.6l0.3,0.2l-0.5-1.8l-0.5,1.2l0.3,0.2L-111.5-59.5z"/>
					<path id="Path_19353" class="st7" d="M-113.1-60.4l0.5,0.3v-3.6l0.3,0.2l-0.5-1.8l-0.5,1.2l0.3,0.2V-60.4z"/>
				</g>
				<g id="Group_6472" transform="translate(18.402 10.624)">
					<path id="Path_19354" class="st7" d="M-115.6-58.5l-4.9-2.8v-7l4.9,2.8V-58.5z M-120.3-61.5l4.6,2.7v-6.6l-4.6-2.7V-61.5z"/>
				</g>
				<g id="Group_6473" transform="translate(9.09 5.248)">
					<path id="Path_19355" class="st7" d="M-112.1-56.5l-4.9-2.8v-7l4.9,2.8V-56.5z M-116.8-59.4l4.6,2.7v-6.6l-4.6-2.7V-59.4z"/>
				</g>
				<g id="Group_6474">
					<path id="Path_19356" class="st7" d="M-108.7-54.5l-4.9-2.8v-7l4.9,2.8V-54.5z M-113.4-57.5l4.6,2.7v-6.6l-4.6-2.7V-57.5z"/>
				</g>
			</g>
		</g>
	</g>
	<g id="Group_6446" transform="translate(-785.2 -1425.513)">
		<g id="Group_6444" transform="translate(1535.531 1915.619)">
			<g id="Group_6440" transform="translate(18.568 46.235)" class="st8">
				<path id="Path_19294" class="st9" d="M107.4-65.1c2.9,1.7,2.9,4.4,0.1,6.1L61.3-32.1c-2.9,1.7-7.7,1.7-10.6,0L4.2-59
					c-2.9-1.7-2.9-4.4,0-6.1l46.2-26.8c2.9-1.7,7.6-1.7,10.6,0L107.4-65.1z"/>
			</g>
			<g id="Group_6442" transform="translate(0 35.285)">
				<g id="Group_6441">
					<path id="Path_19295" class="st10" d="M74.6-13.1c-2.3,0-4.5-0.5-6.6-1.6L11.8-47.1c-1.8-1-2.8-2.5-2.8-4c0-1.5,1-2.9,2.8-3.9
						l55.9-32.5c2-1.1,4.2-1.6,6.5-1.6c2.3,0,4.5,0.5,6.6,1.6L137-55c1.8,1,2.8,2.5,2.8,4c0,1.5-1,2.9-2.7,3.9L81.1-14.6
						C79.1-13.6,76.9-13,74.6-13.1z M74.1-88.5c-2.2,0-4.3,0.5-6.2,1.5L12-54.5c-1.6,0.9-2.5,2.1-2.5,3.4c0,1.3,0.9,2.5,2.5,3.5
						l56.3,32.5c3.9,2,8.6,2,12.5,0l55.9-32.5c1.6-0.9,2.5-2.1,2.5-3.4c0-1.3-0.9-2.5-2.5-3.5L80.4-87C78.5-88,76.3-88.5,74.1-88.5
						L74.1-88.5z"/>
				</g>
			</g>
			<path id="Path_19296" class="st11" d="M126-41.6L79.8-14.7c-2.9,1.7-7.7,1.7-10.6,0L22.8-41.6c-1.5-0.9-2.2-2-2.2-3.1l0,10.8
				c0,1.1,0.7,2.2,2.2,3.1L69.2-4c2.9,1.7,7.7,1.7,10.6,0L126-30.8c1.4-0.8,2.1-1.9,2.2-3l0-10.8C128.2-43.5,127.5-42.4,126-41.6z"
				/>
			<g id="Group_6443" transform="translate(18.568)">
				<path id="Path_19297" class="st2" d="M107.4-47.7c2.9,1.7,2.9,4.4,0.1,6.1L61.3-14.7c-2.9,1.7-7.7,1.7-10.6,0L4.2-41.6
					c-2.9-1.7-2.9-4.4,0-6.1l46.2-26.8c2.9-1.7,7.6-1.7,10.6,0L107.4-47.7z"/>
			</g>
		</g>
		<g id="Group_6445" transform="translate(1584.547 1786.513)">
			<path id="Path_19298" class="st12" d="M19.5-23.3c7-4.1,13.5-4.9,18.5-3l6.7,3.6C39.5-25,32.8-24.3,25.4-20
				c-16,9.2-29,31.7-29,50.1c0,7.9,3.2,12.5,6.3,17.2c4.6,7,22.7,32.4,22.7,32.4c-0.5,1.3-5.9-3.2-5.9-3.2S1.5,51-3.2,44
				c-3.1-4.6-6.3-9.3-6.3-17.2C-9.5,8.4,3.5-14,19.5-23.3z"/>
			<path id="Path_19299" class="st13" d="M25.4-20c-16,9.2-29,31.7-29,50.1c0,7.9,3.2,12.5,6.3,17.2c4.6,7,22.7,32.4,22.7,32.4
				s18.6-47.3,22.8-58.8c2.9-8.1,6.2-16.4,6.2-24.2C54.3-21.8,41.3-29.2,25.4-20z M25.4,32.7c-9.5,5.5-17.1,1-17.1-9.9
				S15.9-1.4,25.4-6.8s17.1-1,17.1,9.9S34.8,27.3,25.4,32.7z"/>
			<path id="Path_19300" class="st12" d="M37.1-8.2C38.8-6.1,39.9-3,39.9,1c0,10.9-7.7,24.2-17.1,29.7c-4.5,2.6-8.7,3-11.7,1.4
				c3.1,3.6,8.3,4.2,14.4,0.7C34.8,27.3,42.5,14,42.5,3.1C42.5-2.6,40.4-6.5,37.1-8.2z"/>
		</g>
	</g>
</g>
</svg>
